<svg xmlns="http://www.w3.org/2000/svg" width="500" height="500" viewBox="0 0 500 500">
  <style type="text/css">
    .st0{fill:#E84D37;}
    .st1{fill:#FFFFFF;}
  </style>
  <g>
    <path class="st0" d="M250,0C111.9,0,0,111.9,0,250c0,124.4,90.9,227.6,210,246.8c9,1.5,18.2,2.4,27.5,2.9c1.4,0.1,2.8,0.1,4.2,0.2
		c2.8,0.1,5.5,0.2,8.3,0.2c2.4,0,4.8,0,7.2-0.1c1.5,0,3-0.1,4.5-0.2c9.2-0.4,18.4-1.4,27.3-2.8c119.5-18.7,211-122.2,211-247
		C500,111.9,388.1,0,250,0z"/>
    <g>
      <path class="st1" d="M368.9,263.6c6-17.7,7.5-36.6,4.3-54.9c-3.2-18.4-10.9-35.8-22.5-50.8c-11.6-15-26.9-27.3-44.5-35.7
			c-17.6-8.4-37-12.8-56.8-12.8c-19.7,0-39.2,4.4-56.8,12.8c-17.6,8.4-32.8,20.7-44.5,35.7c-11.6,15-19.3,32.5-22.5,50.8
			c-3.2,18.4-1.7,37.2,4.3,54.9c-11.2,8.9-18.5,21.4-20.3,35.1c-1.8,13.7,2,27.5,10.5,38.7c8.6,11.2,21.3,18.9,35.7,21.5
			c14.3,2.7,29.2,0.1,41.6-7.2c6.7,6.6,14.7,11.8,23.6,15.4c8.9,3.6,18.4,5.4,28.1,5.4c9.7,0,19.2-1.8,28.1-5.4
			c8.9-3.6,16.9-8.8,23.6-15.4c12.4,7.7,27.5,10.7,42.1,8.2c14.6-2.5,27.7-10.2,36.4-21.6c8.7-11.4,12.5-25.5,10.5-39.4
			C388.1,285.1,380.5,272.4,368.9,263.6z M364.1,312.8c-1.4,5.6-4.4,10.8-8.8,14.9c-4.3,4.1-9.8,7-15.8,8.3c-6,1.3-12.2,1.1-18-0.8
			c-5.8-1.8-11-5.2-14.9-9.6c-3.9-4.4-6.5-9.8-7.3-15.6c-1.2,0.7-2.5,1.3-3.8,1.9c-1.8,10.3-7.4,19.7-15.8,26.5
			c-8.4,6.8-19.2,10.5-30.2,10.5c-11.1,0-21.8-3.7-30.2-10.5c-8.4-6.8-14-16.2-15.8-26.5c-1.3-0.6-2.6-1.3-3.8-1.9
			c-0.9,5.7-3.4,11.1-7.3,15.6c-3.9,4.4-9.1,7.8-14.9,9.6c-5.8,1.8-12,2.1-18,0.8c-6-1.3-11.4-4.2-15.8-8.3
			c-4.3-4.1-7.4-9.2-8.8-14.9c-1.4-5.6-1.1-11.5,0.8-17c1.9-5.5,5.5-10.4,10.2-14.1c4.7-3.7,10.4-6.1,16.5-6.9
			c-8.7-14.4-13.3-30.8-13.3-47.4c0-16.6,4.7-32.9,13.6-47.3c8.8-14.4,21.5-26.3,36.8-34.6c15.3-8.3,32.5-12.7,50.1-12.7
			c17.6,0,34.9,4.4,50.1,12.7c15.2,8.3,27.9,20.2,36.7,34.6c8.8,14.4,13.5,30.7,13.5,47.3s-4.5,32.9-13.3,47.4
			c6.1,0.8,11.8,3.2,16.5,6.9c4.7,3.7,8.3,8.6,10.2,14.1S365.5,307.1,364.1,312.8z"/>
      <path class="st1" d="M334.1,373.7c-0.7,0-1.4,0-2.1,0c-9.8,0-19.4-1.9-28.4-5.6c-1.4,1-2.8,2-4.3,3l1.7,1.6l-14,13.1l-6-5.5
			c-2.4,0.9-4.9,1.7-7.5,2.4l8.3,7.8l-13.9,13.1l-13.8-13.1l5.5-5.2c-3.4,0.4-6.9,0.6-10.3,0.6c-3.6,0-7.1-0.2-10.7-0.7l5.5,5.2
			l-13.9,13.1l-13.8-13.1l8.4-7.9c-2.6-0.7-5-1.5-7.5-2.4l-5.9,5.6l-13.9-13.1l1.9-1.7c-1.4-0.9-2.8-1.8-4.1-2.9
			c-9,3.7-18.6,5.6-28.4,5.6c-0.9,0-1.4-0.1-2.1-0.1c-0.3,1.8-0.1,3.7,0.6,5.4L210,496.8c9,1.5,18.2,2.4,27.5,2.9l-5.4-13.8
			l12.1,11.5l-2.5,2.5c2.8,0.1,5.5,0.2,8.3,0.2c2.4,0,4.8,0,7.2-0.1l-2.7-2.5l12.6-11.9l-5.4,14.2c9.2-0.4,18.4-1.4,27.3-2.8
			l44.5-117.8C334.2,377.4,334.4,375.5,334.1,373.7z M268.2,413l13.8,13.1l-13.8,13.1l-13.9-13.1L268.2,413z M263.2,443.9L249.3,457
			l-13.8-13.1l13.8-13.1L263.2,443.9z M249.3,395.2l13.8,13l-13.8,13.1l-13.8-13L249.3,395.2z M230.4,413l13.8,13.1l-13.7,13.1
			l-13.9-13.1L230.4,413z M191.6,378.5l1.1-1.1l13.9,13.1l-7.7,7.3L191.6,378.5z M201.6,404.7l10-9.6l13.9,13.1l-13.9,13.1l-6-5.5
			L201.6,404.7z M211.4,431v-0.2l13.9,13.1l-6.7,6.4L211.4,431z M230.5,474.9l-4-3.8l-5.2-13.9l9.1-8.6l13.8,13L230.5,474.9z
			 M249.3,492.6l-13.8-13.1l13.8-13.1l13.8,13.1L249.3,492.6z M272.6,470.7l-4.4,4.2l-13.7-13.3l13.8-13.1l9.3,8.8L272.6,470.7z
			 M280.2,450.8l-6.9-6.7l13.8-13.1l0.4,0.4L280.2,450.8z M293.4,415.3l-6.4,6l-13.7-13l13.8-13.1l10.3,9.7L293.4,415.3z M300,397.8
			l-7.9-7.3l13.9-13l1.3,1.3L300,397.8z"/>
    </g>
  </g>
</svg>
